<?xml version="1.0" encoding="UTF-8"?>
<svg width="24px" height="24px" viewBox="0 0 24 24" version="1.1" xmlns="http://www.w3.org/2000/svg">
    <g stroke="none" stroke-width="1" fill="none" fill-rule="evenodd">
        <path d="M12,2C6.5,2,2,6.5,2,12s4.5,10,10,10s10-4.5,10-10S17.5,2,12,2z M16.7,8.3l-1.4,6.6c-0.1,0.4-0.4,0.5-0.8,0.3l-2.2-1.7l-1.1,1.1c-0.1,0.1-0.3,0.2-0.5,0.2c-0.2,0-0.4-0.1-0.5-0.2l-0.8-2.4l-2.2-0.7c-0.4-0.1-0.4-0.4-0.3-0.8l6.6-1.4C16.3,7.9,16.6,7.9,16.7,8.3z" fill="#FFFFFF"/>
    </g>
</svg> 