<?xml version="1.0" encoding="UTF-8"?>
<svg width="24px" height="24px" viewBox="0 0 24 24" version="1.1" xmlns="http://www.w3.org/2000/svg">
    <g stroke="none" stroke-width="1" fill="none" fill-rule="evenodd">
        <path d="M12,2C6.5,2,2,6.5,2,12s4.5,10,10,10s10-4.5,10-10S17.5,2,12,2z M16.8,9.3c0,0.1,0,0.2,0,0.3c0,3.3-2.5,7.1-7.1,7.1c-1.4,0-2.7-0.4-3.8-1.1c0.2,0,0.4,0.1,0.6,0.1c1.2,0,2.3-0.4,3.2-1.1c-1.1,0-2.1-0.8-2.4-1.8c0.2,0,0.3,0,0.5,0c0.2,0,0.5-0.1,0.7-0.1c-1.2-0.2-2-1.2-2-2.4c0-0.1,0-0.2,0-0.3c0.4,0.2,0.8,0.3,1.2,0.3c-0.7-0.5-1.2-1.2-1.2-2.1c0-0.5,0.1-0.9,0.3-1.3c1.3,1.6,3.2,2.6,5.4,2.7c0-0.1,0-0.2,0-0.3c0-1.4,1.1-2.5,2.5-2.5c0.7,0,1.4,0.3,1.8,0.8c0.6-0.1,1.1-0.3,1.6-0.6c-0.2,0.6-0.6,1.1-1.1,1.4c0.5-0.1,1-0.2,1.4-0.4C17.7,8.5,17.3,8.9,16.8,9.3z" fill="#FFFFFF"/>
    </g>
</svg> 